<svg width="1741" height="343" viewBox="0 0 1741 343" fill="none" xmlns="http://www.w3.org/2000/svg">
<path fill-rule="evenodd" clip-rule="evenodd" d="M1516.2 191.493C1516.2 191.493 1573.86 211.101 1586.34 216.321C1599.07 221.541 1612.56 237.711 1601.87 253.371C1588.76 272.087 1550.7 284.437 1527.66 266.867C1527.66 266.867 1515.44 258.591 1515.44 226.634H1420.6C1420.6 226.634 1408.25 338.93 1527.66 342.113C1529.44 342.113 1531.22 342.24 1533 342.24H1533.13H1533.26C1648.97 342.75 1700.9 265.339 1704.98 229.817C1709.43 191.493 1690.47 146.295 1613.2 132.926C1613.2 132.926 1553.5 125.796 1576.16 83.3988C1607.98 47.3673 1650.24 81.3617 1646.04 105.043H1738.84C1738.84 105.043 1760.86 -0.505035 1617.91 1.15012C1474.96 2.80528 1471.52 111.027 1471.52 111.027C1471.52 111.027 1470.25 175.833 1516.2 191.493ZM406.324 119.558C424.781 95.8762 445.912 84.2901 469.971 84.4174C485.5 84.5447 497.593 90.2741 506.122 101.606C514.651 113.064 517.451 128.725 514.523 148.459C511.978 166.284 505.486 184.491 494.666 203.334C483.973 222.05 471.88 236.055 458.387 245.095C444.766 254.262 431.4 258.846 418.289 258.846C401.996 258.718 389.775 252.734 381.501 241.021C373.227 229.18 370.299 214.666 372.845 197.223C376.664 168.958 387.866 143.112 406.324 119.558ZM277.12 268.649C282.848 289.148 295.069 306.336 314.163 320.341C333.257 334.346 358.588 341.349 389.775 341.476C425.927 341.731 459.66 333.328 490.974 316.012C522.288 298.697 548.766 273.997 570.533 241.912C592.3 209.828 605.793 176.47 611.267 141.966C617.759 100.46 610.249 67.2292 588.481 41.8925C566.714 16.6832 535.145 3.95116 493.647 3.69652C462.587 3.5692 433.946 9.55324 407.724 21.6486C381.501 33.8714 358.716 50.2956 339.494 71.3034C320.146 92.3112 304.361 117.139 292.141 145.913C282.848 167.175 276.611 187.674 273.556 206.899C270.374 227.652 271.519 248.278 277.12 268.649ZM914.99 10.0625L886.858 94.3484H978.255L889.277 338.166H991.876L1079.07 94.3484H1166.27L1198.6 10.0625H914.99ZM711.702 10.0625L595.482 338.166H838.105L867.128 253.371H731.432L815.956 10.0625H711.702ZM1376.56 337.529L1377.32 9.42592H1283.12L1040.63 337.529H1139.66L1287.58 122.231L1279.31 337.529H1376.56ZM120.676 10.0625L108.71 198.496L223.275 9.9352H322.31L113.802 338.166H1.01953L23.296 10.0625H120.676Z" fill="#096BCE"/>
</svg>
