<svg width="340" height="67" viewBox="0 0 340 67" fill="none" xmlns="http://www.w3.org/2000/svg">
<g clip-path="url(#clip0)">
<path fill-rule="evenodd" clip-rule="evenodd" d="M296.099 37.3966C296.099 37.3966 307.36 41.2257 309.796 42.2452C312.282 43.2646 314.917 46.4224 312.829 49.4807C310.269 53.1357 302.836 55.5476 298.336 52.1163C298.336 52.1163 295.95 50.5001 295.95 44.2592H277.43C277.43 44.2592 275.018 66.1895 298.336 66.8111C298.684 66.8111 299.032 66.836 299.38 66.836H299.405H299.43C322.027 66.9354 332.17 51.8179 332.965 44.8808C333.835 37.3966 330.131 28.5698 315.042 25.959C315.042 25.959 303.383 24.5666 307.808 16.2868C314.022 9.25022 322.276 15.889 321.455 20.5138H339.578C339.578 20.5138 343.878 -0.0987708 315.961 0.224465C288.044 0.547702 287.373 21.6824 287.373 21.6824C287.373 21.6824 287.125 34.3383 296.099 37.3966ZM79.3511 23.3483C82.9557 18.7235 87.0823 16.4609 91.7807 16.4857C94.8135 16.5106 97.1751 17.6295 98.8407 19.8424C100.506 22.0802 101.053 25.1385 100.481 28.9925C99.9842 32.4735 98.7164 36.0291 96.6034 39.709C94.5152 43.3641 92.1536 46.0991 89.5185 47.8645C86.8586 49.6547 84.2483 50.5499 81.6878 50.5499C78.5059 50.525 76.1194 49.3564 74.5035 47.0688C72.8877 44.7565 72.3159 41.9219 72.8131 38.5155C73.5589 32.9956 75.7465 27.9482 79.3511 23.3483ZM54.1189 52.4644C55.2376 56.4676 57.6241 59.8242 61.353 62.5593C65.0819 65.2944 70.0289 66.6619 76.1194 66.6868C83.1794 66.7365 89.7671 65.0955 95.8825 61.7139C101.998 58.3324 107.169 53.5087 111.419 47.2429C115.67 40.9771 118.306 34.4626 119.374 27.7244C120.642 19.6186 119.176 13.129 114.925 8.18105C110.674 3.25791 104.509 0.77148 96.4045 0.721752C90.3389 0.696888 84.7455 1.86551 79.6245 4.22762C74.5035 6.6146 70.0537 9.82209 66.3 13.9247C62.5214 18.0273 59.4388 22.8759 57.0523 28.4952C55.2376 32.6475 54.0195 36.6507 53.4229 40.4052C52.8014 44.4581 53.0251 48.4861 54.1189 52.4644ZM178.689 1.96497L173.195 18.4252H191.044L173.667 66.0403H193.704L210.732 18.4252H227.761L234.075 1.96497H178.689ZM138.988 1.96497L116.292 66.0403H163.674L169.342 49.4807H142.842L159.348 1.96497H138.988ZM268.828 65.916L268.977 1.84065H250.582L203.225 65.916H222.565L251.452 23.8704L249.836 65.916H268.828V65.916ZM23.5669 1.96497L21.2301 38.7642L43.6035 1.9401H62.944L22.2245 66.0403H0.199219L4.54959 1.96497H23.5669Z" fill="#096BCE"/>
</g>
<defs>
<clipPath id="clip0">
<rect width="340" height="66.9845" fill="white"/>
</clipPath>
</defs>
</svg>
