<svg width="1740" height="342" viewBox="0 0 1740 342" fill="none" xmlns="http://www.w3.org/2000/svg">
<path fill-rule="evenodd" clip-rule="evenodd" d="M1515.2 190.493C1515.2 190.493 1572.86 210.101 1585.34 215.321C1598.07 220.541 1611.56 236.711 1600.87 252.371C1587.76 271.087 1549.7 283.437 1526.66 265.867C1526.66 265.867 1514.44 257.591 1514.44 225.634H1419.6C1419.6 225.634 1407.25 337.93 1526.66 341.113C1528.44 341.113 1530.22 341.24 1532 341.24H1532.13H1532.26C1647.97 341.75 1699.9 264.339 1703.98 228.817C1708.43 190.493 1689.47 145.295 1612.2 131.926C1612.2 131.926 1552.5 124.796 1575.16 82.3988C1606.98 46.3673 1649.24 80.3617 1645.04 104.043H1737.84C1737.84 104.043 1759.86 -1.50504 1616.91 0.150124C1473.96 1.80528 1470.52 110.027 1470.52 110.027C1470.52 110.027 1469.25 174.833 1515.2 190.493ZM405.324 118.558C423.781 94.8762 444.912 83.2901 468.971 83.4174C484.5 83.5447 496.593 89.2741 505.122 100.606C513.651 112.064 516.451 127.725 513.523 147.459C510.978 165.284 504.486 183.491 493.666 202.334C482.973 221.05 470.88 235.055 457.387 244.095C443.766 253.262 430.4 257.846 417.289 257.846C400.996 257.718 388.775 251.734 380.501 240.021C372.227 228.18 369.299 213.666 371.845 196.223C375.664 167.958 386.866 142.112 405.324 118.558ZM276.12 267.649C281.848 288.148 294.069 305.336 313.163 319.341C332.257 333.346 357.588 340.349 388.775 340.476C424.927 340.731 458.66 332.328 489.974 315.012C521.288 297.697 547.766 272.997 569.533 240.912C591.3 208.828 604.793 175.47 610.267 140.966C616.759 99.4597 609.249 66.2292 587.481 40.8925C565.714 15.6832 534.145 2.95116 492.647 2.69652C461.587 2.5692 432.946 8.55324 406.724 20.6486C380.501 32.8714 357.716 49.2956 338.494 70.3034C319.146 91.3112 303.361 116.139 291.141 144.913C281.848 166.175 275.611 186.674 272.556 205.899C269.374 226.652 270.519 247.278 276.12 267.649ZM913.99 9.06252L885.858 93.3483H977.255L888.277 337.166H990.876L1078.07 93.3483H1165.27L1197.6 9.06252H913.99ZM710.702 9.06252L594.482 337.166H837.105L866.128 252.371H730.432L814.956 9.06252H710.702ZM1375.56 336.529L1376.32 8.42592H1282.12L1039.63 336.529H1138.66L1286.58 121.231L1278.31 336.529H1375.56V336.529ZM119.676 9.06252L107.71 197.496L222.275 8.9352H321.31L112.802 337.166H0.0195312L22.296 9.06252H119.676Z" fill="#096BCE"/>
</svg>
